<svg width="738" height="266" viewBox="0 0 738 266" fill="none" xmlns="http://www.w3.org/2000/svg">
<rect x="15" y="15" width="708" height="236" rx="118" stroke="#3D8BFD" stroke-width="30"/>
<path d="M625 178.6V147H597.6V127.6H625V96.4H644.8V127.6H672.6V147H644.8V178.6H625Z" fill="#084298"/>
<path d="M625 178.6H622V181.6H625V178.6ZM625 147H628V144H625V147ZM597.6 147H594.6V150H597.6V147ZM597.6 127.6V124.6H594.6V127.6H597.6ZM625 127.6V130.6H628V127.6H625ZM625 96.4V93.4H622V96.4H625ZM644.8 96.4H647.8V93.4H644.8V96.4ZM644.8 127.6H641.8V130.6H644.8V127.6ZM672.6 127.6H675.6V124.6H672.6V127.6ZM672.6 147V150H675.6V147H672.6ZM644.8 147V144H641.8V147H644.8ZM644.8 178.6V181.6H647.8V178.6H644.8ZM628 178.6V147H622V178.6H628ZM625 144H597.6V150H625V144ZM600.6 147V127.6H594.6V147H600.6ZM597.6 130.6H625V124.6H597.6V130.6ZM628 127.6V96.4H622V127.6H628ZM625 99.4H644.8V93.4H625V99.4ZM641.8 96.4V127.6H647.8V96.4H641.8ZM644.8 130.6H672.6V124.6H644.8V130.6ZM669.6 127.6V147H675.6V127.6H669.6ZM672.6 144H644.8V150H672.6V144ZM641.8 147V178.6H647.8V147H641.8ZM644.8 175.6H625V181.6H644.8V175.6Z" fill="#084298"/>
<path d="M133.4 196L129.2 177H105.2L110.4 153.4H122.6L101 56H125.2L157.6 196H133.4ZM66.4 196L92.4 79H95.6L105.6 126L90.2 196H66.4ZM175.358 120.2C175.358 115.267 176.158 110.6 177.758 106.2C179.491 101.8 181.891 97.9333 184.958 94.6C188.158 91.2667 191.891 88.6667 196.158 86.8C200.558 84.9333 205.424 84 210.758 84V106.6C208.358 106.6 206.224 107.2 204.358 108.4C202.491 109.6 201.024 111.333 199.958 113.6C198.891 115.867 198.358 118.467 198.358 121.4V196H175.358V120.2ZM233.158 121.4C233.158 118.733 232.624 116.267 231.558 114C230.624 111.733 229.224 109.933 227.358 108.6C225.491 107.267 223.224 106.6 220.558 106.6V84C225.891 84 230.691 84.9333 234.958 86.8C239.358 88.6667 243.091 91.2667 246.158 94.6C249.358 97.9333 251.758 101.8 253.358 106.2C255.091 110.6 255.958 115.267 255.958 120.2V196H233.158V121.4ZM281.052 196V85.4H304.252V196H281.052ZM292.452 75.8C288.985 75.8 285.918 74.6 283.252 72.2C280.718 69.6667 279.452 66.6667 279.452 63.2C279.452 59.7333 280.718 56.8 283.252 54.4C285.918 51.8667 288.985 50.6 292.452 50.6C295.918 50.6 298.852 51.8667 301.252 54.4C303.785 56.8 305.052 59.7333 305.052 63.2C305.052 66.6667 303.785 69.6667 301.252 72.2C298.852 74.6 295.918 75.8 292.452 75.8ZM383.973 196V117.4C383.973 114.467 383.04 112 381.173 110C379.307 107.867 376.307 106.8 372.173 106.8V83.8C377.64 83.8 382.24 84.6 385.973 86.2C389.707 87.6667 392.973 89.7333 395.773 92.4C398.573 89.7333 401.84 87.6667 405.573 86.2C409.307 84.6 413.84 83.8 419.173 83.8V106.8C415.04 106.8 412.04 107.867 410.173 110C408.44 112.133 407.573 114.6 407.573 117.4V196H383.973ZM328.373 196V114.4C328.373 111.6 329.04 108.467 330.373 105C331.84 101.533 333.973 98.2 336.773 95C339.707 91.6667 343.307 89 347.573 87C351.973 84.8667 357.173 83.8 363.173 83.8V106.8C359.173 106.8 356.307 107.933 354.573 110.2C352.84 112.467 351.973 114.867 351.973 117.4V196H328.373ZM439.573 196V117.4C439.573 114.333 438.64 111.8 436.773 109.8C435.04 107.8 432.173 106.8 428.173 106.8V83.8C434.04 83.8 439.173 84.8667 443.573 87C447.973 89.1333 451.64 91.8667 454.573 95.2C457.507 98.4 459.64 101.8 460.973 105.4C462.44 108.867 463.173 111.867 463.173 114.4V196H439.573ZM519.573 196C513.707 196 508.573 194.933 504.173 192.8C499.907 190.667 496.307 188 493.373 184.8C490.44 181.467 488.24 178.067 486.773 174.6C485.307 171.133 484.573 168.133 484.573 165.6V114.2C484.573 111.533 485.307 108.533 486.773 105.2C488.24 101.733 490.44 98.4 493.373 95.2C496.307 92 499.907 89.3333 504.173 87.2C508.573 85.0667 513.64 84 519.373 84V106C516.973 106 514.907 106.533 513.173 107.6C511.573 108.667 510.24 110 509.173 111.6C508.24 113.067 507.773 114.467 507.773 115.8V127.2H542.973V116C542.973 113.6 542.307 111.667 540.973 110.2C539.64 108.6 537.973 107.467 535.973 106.8C533.973 106.133 531.907 105.8 529.773 105.8V84C535.107 84 540.44 85.2667 545.773 87.8C551.107 90.3333 555.573 93.8667 559.173 98.4C562.773 102.8 564.573 108 564.573 114V149.6H507.773V165.6C507.773 166.8 508.173 168.133 508.973 169.6C509.773 170.933 511.04 172.133 512.773 173.2C514.64 174.133 516.907 174.6 519.573 174.6V196ZM529.773 196V174.6C532.973 174.6 535.64 174.067 537.773 173C539.907 171.8 541.64 170.333 542.973 168.6C544.307 166.733 545.24 164.8 545.773 162.8L564.773 170C563.84 174.267 561.773 178.4 558.573 182.4C555.507 186.4 551.507 189.667 546.573 192.2C541.64 194.733 536.04 196 529.773 196Z" fill="#3D8BFD"/>
<path d="M133.4 196L130.471 196.648C130.774 198.022 131.993 199 133.4 199V196ZM129.2 177L132.129 176.352C131.826 174.978 130.607 174 129.2 174V177ZM105.2 177L102.27 176.354C102.075 177.242 102.292 178.171 102.862 178.879C103.431 179.588 104.291 180 105.2 180V177ZM110.4 153.4V150.4C108.992 150.4 107.773 151.379 107.47 152.754L110.4 153.4ZM122.6 153.4V156.4C123.51 156.4 124.37 155.987 124.94 155.278C125.509 154.568 125.726 153.639 125.529 152.75L122.6 153.4ZM101 56V53C100.09 53 99.2297 53.4128 98.6603 54.1223C98.0909 54.8318 97.8742 55.7614 98.0712 56.6495L101 56ZM125.2 56L128.123 55.3236C127.808 53.9633 126.596 53 125.2 53V56ZM157.6 196V199C158.515 199 159.379 198.583 159.948 197.867C160.517 197.151 160.729 196.215 160.523 195.324L157.6 196ZM66.4 196L63.4714 195.349C63.274 196.237 63.4905 197.167 64.0599 197.877C64.6293 198.587 65.49 199 66.4 199V196ZM92.4 79V76C90.9939 76 89.7765 76.9766 89.4714 78.3492L92.4 79ZM95.6 79L98.5343 78.3757C98.2396 76.9904 97.0162 76 95.6 76V79ZM105.6 126L108.53 126.645C108.622 126.227 108.623 125.794 108.534 125.376L105.6 126ZM90.2 196V199C91.6085 199 92.8273 198.02 93.1299 196.645L90.2 196ZM136.329 195.352L132.129 176.352L126.271 177.648L130.471 196.648L136.329 195.352ZM129.2 174H105.2V180H129.2V174ZM108.13 177.646L113.33 154.046L107.47 152.754L102.27 176.354L108.13 177.646ZM110.4 156.4H122.6V150.4H110.4V156.4ZM125.529 152.75L103.929 55.3505L98.0712 56.6495L119.671 154.05L125.529 152.75ZM101 59H125.2V53H101V59ZM122.277 56.6764L154.677 196.676L160.523 195.324L128.123 55.3236L122.277 56.6764ZM157.6 193H133.4V199H157.6V193ZM69.3286 196.651L95.3286 79.6508L89.4714 78.3492L63.4714 195.349L69.3286 196.651ZM92.4 82H95.6V76H92.4V82ZM92.6657 79.6243L102.666 126.624L108.534 125.376L98.5343 78.3757L92.6657 79.6243ZM102.67 125.355L87.2701 195.355L93.1299 196.645L108.53 126.645L102.67 125.355ZM90.2 193H66.4V199H90.2V193ZM177.758 106.2L174.967 105.1C174.957 105.125 174.947 105.15 174.938 105.175L177.758 106.2ZM184.958 94.6L182.794 92.5224C182.779 92.5377 182.764 92.5532 182.75 92.5688L184.958 94.6ZM196.158 86.8L194.986 84.0383C194.976 84.0426 194.966 84.047 194.955 84.0515L196.158 86.8ZM210.758 84H213.758C213.758 82.3431 212.415 81 210.758 81V84ZM210.758 106.6V109.6C212.415 109.6 213.758 108.257 213.758 106.6H210.758ZM199.958 113.6L197.243 112.323L197.243 112.323L199.958 113.6ZM198.358 196V199C200.015 199 201.358 197.657 201.358 196H198.358ZM175.358 196H172.358C172.358 197.657 173.701 199 175.358 199V196ZM231.558 114L228.784 115.142C228.803 115.188 228.822 115.233 228.843 115.277L231.558 114ZM227.358 108.6L225.614 111.041L225.614 111.041L227.358 108.6ZM220.558 106.6H217.558C217.558 108.257 218.901 109.6 220.558 109.6V106.6ZM220.558 84V81C218.901 81 217.558 82.3431 217.558 84H220.558ZM234.958 86.8L233.755 89.5485C233.766 89.553 233.776 89.5574 233.786 89.5617L234.958 86.8ZM246.158 94.6L243.95 96.6312C243.964 96.6468 243.979 96.6623 243.994 96.6776L246.158 94.6ZM253.358 106.2L250.538 107.225C250.547 107.25 250.557 107.275 250.567 107.3L253.358 106.2ZM255.958 196V199C257.615 199 258.958 197.657 258.958 196H255.958ZM233.158 196H230.158C230.158 197.657 231.501 199 233.158 199V196ZM178.358 120.2C178.358 115.597 179.103 111.279 180.577 107.225L174.938 105.175C173.213 109.921 172.358 114.936 172.358 120.2H178.358ZM180.549 107.3C182.153 103.228 184.36 99.6806 187.166 96.6312L182.75 92.5688C179.422 96.186 176.829 100.372 174.967 105.1L180.549 107.3ZM187.122 96.6776C190.046 93.6313 193.452 91.2582 197.36 89.5485L194.955 84.0515C190.33 86.0751 186.269 88.9021 182.794 92.5224L187.122 96.6776ZM197.329 89.5617C201.318 87.8696 205.78 87 210.758 87V81C205.069 81 199.797 81.9971 194.986 84.0383L197.329 89.5617ZM207.758 84V106.6H213.758V84H207.758ZM210.758 103.6C207.831 103.6 205.126 104.34 202.736 105.876L205.98 110.924C207.323 110.06 208.884 109.6 210.758 109.6V103.6ZM202.736 105.876C200.336 107.419 198.518 109.614 197.243 112.323L202.672 114.877C203.531 113.053 204.646 111.781 205.98 110.924L202.736 105.876ZM197.243 112.323C195.959 115.052 195.358 118.1 195.358 121.4H201.358C201.358 118.833 201.823 116.682 202.672 114.877L197.243 112.323ZM195.358 121.4V196H201.358V121.4H195.358ZM198.358 193H175.358V199H198.358V193ZM178.358 196V120.2H172.358V196H178.358ZM236.158 121.4C236.158 118.321 235.539 115.414 234.272 112.723L228.843 115.277C229.71 117.119 230.158 119.146 230.158 121.4H236.158ZM234.332 112.858C233.199 110.107 231.459 107.842 229.102 106.159L225.614 111.041C226.99 112.024 228.05 113.359 228.784 115.142L234.332 112.858ZM229.102 106.159C226.647 104.405 223.745 103.6 220.558 103.6V109.6C222.704 109.6 224.335 110.128 225.614 111.041L229.102 106.159ZM223.558 106.6V84H217.558V106.6H223.558ZM220.558 87C225.537 87 229.919 87.8701 233.755 89.5485L236.16 84.0515C231.463 81.9966 226.245 81 220.558 81V87ZM233.786 89.5617C237.815 91.2709 241.189 93.6297 243.95 96.6312L248.366 92.5688C244.994 88.9037 240.901 86.0624 236.129 84.0383L233.786 89.5617ZM243.994 96.6776C246.9 99.7055 249.079 103.212 250.538 107.225L256.177 105.175C254.436 100.388 251.815 96.1612 248.322 92.5224L243.994 96.6776ZM250.567 107.3C252.156 111.334 252.958 115.627 252.958 120.2H258.958C258.958 114.907 258.026 109.866 256.149 105.1L250.567 107.3ZM252.958 120.2V196H258.958V120.2H252.958ZM255.958 193H233.158V199H255.958V193ZM236.158 196V121.4H230.158V196H236.158ZM281.052 196H278.052C278.052 197.657 279.395 199 281.052 199V196ZM281.052 85.4V82.4C279.395 82.4 278.052 83.7431 278.052 85.4H281.052ZM304.252 85.4H307.252C307.252 83.7431 305.908 82.4 304.252 82.4V85.4ZM304.252 196V199C305.908 199 307.252 197.657 307.252 196H304.252ZM283.252 72.2L281.13 74.3213C281.167 74.3585 281.206 74.3947 281.245 74.4299L283.252 72.2ZM283.252 54.4L285.315 56.5779L285.318 56.575L283.252 54.4ZM301.252 54.4L299.074 56.4632C299.111 56.5025 299.149 56.5407 299.188 56.5779L301.252 54.4ZM301.252 72.2L299.13 70.0787L299.13 70.0787L301.252 72.2ZM284.052 196V85.4H278.052V196H284.052ZM281.052 88.4H304.252V82.4H281.052V88.4ZM301.252 85.4V196H307.252V85.4H301.252ZM304.252 193H281.052V199H304.252V193ZM292.452 72.8C289.754 72.8 287.395 71.8933 285.258 69.9701L281.245 74.4299C284.441 77.3066 288.216 78.8 292.452 78.8V72.8ZM285.373 70.0787C283.381 68.0869 282.452 65.8417 282.452 63.2H276.452C276.452 67.4916 278.055 71.2464 281.13 74.3213L285.373 70.0787ZM282.452 63.2C282.452 60.5633 283.375 58.4156 285.315 56.5779L281.188 52.2221C278.061 55.1844 276.452 58.9034 276.452 63.2H282.452ZM285.318 56.575C287.464 54.5357 289.804 53.6 292.452 53.6V47.6C288.166 47.6 284.372 49.1976 281.185 52.225L285.318 56.575ZM292.452 53.6C295.088 53.6 297.236 54.5234 299.074 56.4632L303.429 52.3368C300.467 49.2099 296.748 47.6 292.452 47.6V53.6ZM299.188 56.5779C301.128 58.4156 302.052 60.5633 302.052 63.2H308.052C308.052 58.9034 306.442 55.1844 303.315 52.2221L299.188 56.5779ZM302.052 63.2C302.052 65.8417 301.122 68.0869 299.13 70.0787L303.373 74.3213C306.448 71.2464 308.052 67.4916 308.052 63.2H302.052ZM299.13 70.0787C297.306 71.9027 295.142 72.8 292.452 72.8V78.8C296.695 78.8 300.397 77.2973 303.373 74.3213L299.13 70.0787ZM383.973 196H380.973C380.973 197.657 382.317 199 383.973 199V196ZM381.173 110L378.916 111.976C378.937 112 378.958 112.023 378.98 112.047L381.173 110ZM372.173 106.8H369.173C369.173 108.457 370.517 109.8 372.173 109.8V106.8ZM372.173 83.8V80.8C370.517 80.8 369.173 82.1431 369.173 83.8H372.173ZM385.973 86.2L384.792 88.9574C384.82 88.9695 384.848 88.9811 384.876 88.9923L385.973 86.2ZM395.773 92.4L393.704 94.5724C394.863 95.6759 396.684 95.6759 397.842 94.5724L395.773 92.4ZM405.573 86.2L406.67 88.9923C406.699 88.9811 406.727 88.9695 406.755 88.9574L405.573 86.2ZM419.173 83.8H422.173C422.173 82.1431 420.83 80.8 419.173 80.8V83.8ZM419.173 106.8V109.8C420.83 109.8 422.173 108.457 422.173 106.8H419.173ZM410.173 110L407.916 108.024C407.892 108.052 407.868 108.08 407.845 108.108L410.173 110ZM407.573 196V199C409.23 199 410.573 197.657 410.573 196H407.573ZM328.373 196H325.373C325.373 197.657 326.717 199 328.373 199V196ZM330.373 105L327.611 103.831C327.598 103.862 327.585 103.892 327.573 103.923L330.373 105ZM336.773 95L334.521 93.0181L334.516 93.0245L336.773 95ZM347.573 87L348.847 89.7164C348.859 89.7108 348.87 89.7052 348.882 89.6994L347.573 87ZM363.173 83.8H366.173C366.173 82.1431 364.83 80.8 363.173 80.8V83.8ZM363.173 106.8V109.8C364.83 109.8 366.173 108.457 366.173 106.8H363.173ZM354.573 110.2L356.957 112.022L356.957 112.022L354.573 110.2ZM351.973 196V199C353.63 199 354.973 197.657 354.973 196H351.973ZM439.573 196H436.573C436.573 197.657 437.917 199 439.573 199V196ZM436.773 109.8L434.506 111.765C434.531 111.793 434.555 111.82 434.58 111.847L436.773 109.8ZM428.173 106.8H425.173C425.173 108.457 426.517 109.8 428.173 109.8V106.8ZM428.173 83.8V80.8C426.517 80.8 425.173 82.1431 425.173 83.8H428.173ZM443.573 87L442.265 89.6994L442.265 89.6994L443.573 87ZM454.573 95.2L452.321 97.1819C452.335 97.1971 452.348 97.2122 452.362 97.2272L454.573 95.2ZM460.973 105.4L458.16 106.442C458.176 106.485 458.193 106.527 458.211 106.569L460.973 105.4ZM463.173 196V199C464.83 199 466.173 197.657 466.173 196H463.173ZM386.973 196V117.4H380.973V196H386.973ZM386.973 117.4C386.973 113.767 385.791 110.551 383.367 107.953L378.98 112.047C380.289 113.449 380.973 115.166 380.973 117.4H386.973ZM383.431 108.024C380.774 104.987 376.767 103.8 372.173 103.8V109.8C375.846 109.8 377.84 110.746 378.916 111.976L383.431 108.024ZM375.173 106.8V83.8H369.173V106.8H375.173ZM372.173 86.8C377.366 86.8 381.537 87.5625 384.792 88.9574L387.155 83.4426C382.943 81.6374 377.914 80.8 372.173 80.8V86.8ZM384.876 88.9923C388.263 90.3225 391.196 92.1832 393.704 94.5724L397.842 90.2276C394.751 87.2834 391.151 85.0108 387.07 83.4077L384.876 88.9923ZM397.842 94.5724C400.351 92.1832 403.284 90.3225 406.67 88.9923L404.476 83.4077C400.396 85.0108 396.796 87.2834 393.704 90.2276L397.842 94.5724ZM406.755 88.9574C410.018 87.5591 414.125 86.8 419.173 86.8V80.8C413.555 80.8 408.596 81.6409 404.392 83.4426L406.755 88.9574ZM416.173 83.8V106.8H422.173V83.8H416.173ZM419.173 103.8C414.58 103.8 410.573 104.987 407.916 108.024L412.431 111.976C413.507 110.746 415.501 109.8 419.173 109.8V103.8ZM407.845 108.108C405.669 110.787 404.573 113.925 404.573 117.4H410.573C410.573 115.275 411.212 113.48 412.502 111.892L407.845 108.108ZM404.573 117.4V196H410.573V117.4H404.573ZM407.573 193H383.973V199H407.573V193ZM331.373 196V114.4H325.373V196H331.373ZM331.373 114.4C331.373 112.067 331.932 109.306 333.173 106.077L327.573 103.923C326.149 107.628 325.373 111.133 325.373 114.4H331.373ZM333.136 106.169C334.464 103.032 336.415 99.966 339.031 96.9755L334.516 93.0245C331.532 96.434 329.217 100.035 327.611 103.831L333.136 106.169ZM339.026 96.9819C341.67 93.9767 344.93 91.5523 348.847 89.7164L346.3 84.2836C341.683 86.4477 337.743 89.3566 334.521 93.0181L339.026 96.9819ZM348.882 89.6994C352.792 87.8037 357.526 86.8 363.173 86.8V80.8C356.821 80.8 351.155 81.9297 346.265 84.3006L348.882 89.6994ZM360.173 83.8V106.8H366.173V83.8H360.173ZM363.173 103.8C358.637 103.8 354.696 105.101 352.19 108.378L356.957 112.022C357.918 110.766 359.71 109.8 363.173 109.8V103.8ZM352.19 108.378C350.11 111.098 348.973 114.126 348.973 117.4H354.973C354.973 115.608 355.57 113.835 356.957 112.022L352.19 108.378ZM348.973 117.4V196H354.973V117.4H348.973ZM351.973 193H328.373V199H351.973V193ZM442.573 196V117.4H436.573V196H442.573ZM442.573 117.4C442.573 113.673 441.416 110.377 438.967 107.753L434.58 111.847C435.864 113.223 436.573 114.994 436.573 117.4H442.573ZM439.041 107.835C436.498 104.901 432.595 103.8 428.173 103.8V109.8C431.752 109.8 433.582 110.699 434.506 111.765L439.041 107.835ZM431.173 106.8V83.8H425.173V106.8H431.173ZM428.173 86.8C433.676 86.8 438.346 87.7995 442.265 89.6994L444.882 84.3006C440.001 81.9338 434.404 80.8 428.173 80.8V86.8ZM442.265 89.6994C446.342 91.6764 449.677 94.1771 452.321 97.1819L456.826 93.2181C453.603 89.5562 449.605 86.5903 444.882 84.3006L442.265 89.6994ZM452.362 97.2272C455.067 100.178 456.978 103.251 458.16 106.442L463.787 104.358C462.302 100.349 459.947 96.6219 456.785 93.1728L452.362 97.2272ZM458.211 106.569C459.59 109.829 460.173 112.414 460.173 114.4H466.173C466.173 111.319 465.29 107.904 463.736 104.231L458.211 106.569ZM460.173 114.4V196H466.173V114.4H460.173ZM463.173 193H439.573V199H463.173V193ZM519.573 196V199C521.23 199 522.573 197.657 522.573 196H519.573ZM504.173 192.8L502.832 195.483C502.843 195.489 502.854 195.494 502.865 195.499L504.173 192.8ZM493.373 184.8L491.121 186.782C491.135 186.797 491.148 186.812 491.162 186.827L493.373 184.8ZM486.773 174.6L489.536 173.431L489.536 173.431L486.773 174.6ZM486.773 105.2L489.519 106.408C489.525 106.395 489.531 106.382 489.536 106.369L486.773 105.2ZM493.373 95.2L495.585 97.2272L493.373 95.2ZM504.173 87.2L502.865 84.5006C502.854 84.5059 502.843 84.5113 502.832 84.5167L504.173 87.2ZM519.373 84H522.373C522.373 82.3431 521.03 81 519.373 81V84ZM519.373 106V109C521.03 109 522.373 107.657 522.373 106H519.373ZM513.173 107.6L511.601 105.045C511.57 105.064 511.54 105.084 511.509 105.104L513.173 107.6ZM509.173 111.6L506.677 109.936C506.665 109.954 506.654 109.971 506.642 109.989L509.173 111.6ZM507.773 127.2H504.773C504.773 128.857 506.117 130.2 507.773 130.2V127.2ZM542.973 127.2V130.2C544.63 130.2 545.973 128.857 545.973 127.2H542.973ZM540.973 110.2L538.669 112.121C538.696 112.154 538.725 112.186 538.754 112.218L540.973 110.2ZM535.973 106.8L535.025 109.646L535.025 109.646L535.973 106.8ZM529.773 105.8H526.773C526.773 107.457 528.117 108.8 529.773 108.8V105.8ZM529.773 84V81C528.117 81 526.773 82.3431 526.773 84H529.773ZM545.773 87.8L547.061 85.0902L547.061 85.0902L545.773 87.8ZM559.173 98.4L556.824 100.266C556.833 100.277 556.842 100.288 556.852 100.3L559.173 98.4ZM564.573 149.6V152.6C566.23 152.6 567.573 151.257 567.573 149.6H564.573ZM507.773 149.6V146.6C506.117 146.6 504.773 147.943 504.773 149.6H507.773ZM508.973 169.6L506.34 171.037C506.359 171.073 506.38 171.108 506.401 171.143L508.973 169.6ZM512.773 173.2L511.201 175.755C511.276 175.801 511.353 175.844 511.432 175.883L512.773 173.2ZM519.573 174.6H522.573C522.573 172.943 521.23 171.6 519.573 171.6V174.6ZM529.773 196H526.773C526.773 197.657 528.117 199 529.773 199V196ZM529.773 174.6V171.6C528.117 171.6 526.773 172.943 526.773 174.6H529.773ZM537.773 173L539.115 175.683C539.159 175.661 539.202 175.639 539.244 175.615L537.773 173ZM542.973 168.6L545.351 170.429C545.373 170.401 545.394 170.373 545.415 170.344L542.973 168.6ZM545.773 162.8L546.837 159.995C546.043 159.694 545.159 159.743 544.404 160.131C543.649 160.518 543.093 161.207 542.875 162.027L545.773 162.8ZM564.773 170L567.704 170.641C568.022 169.188 567.227 167.722 565.837 167.195L564.773 170ZM558.573 182.4L556.231 180.526C556.218 180.542 556.205 180.558 556.193 180.575L558.573 182.4ZM546.573 192.2L545.203 189.531L546.573 192.2ZM519.573 193C514.071 193 509.401 192 505.482 190.101L502.865 195.499C507.746 197.866 513.343 199 519.573 199V193ZM505.515 190.117C501.544 188.131 498.247 185.677 495.585 182.773L491.162 186.827C494.366 190.323 498.27 193.202 502.832 195.483L505.515 190.117ZM495.626 182.818C492.868 179.684 490.857 176.553 489.536 173.431L484.011 175.769C485.623 179.58 488.012 183.249 491.121 186.782L495.626 182.818ZM489.536 173.431C488.157 170.171 487.573 167.586 487.573 165.6H481.573C481.573 168.681 482.457 172.096 484.011 175.769L489.536 173.431ZM487.573 165.6V114.2H481.573V165.6H487.573ZM487.573 114.2C487.573 112.072 488.163 109.492 489.519 106.408L484.027 103.992C482.451 107.575 481.573 110.995 481.573 114.2H487.573ZM489.536 106.369C490.851 103.262 492.848 100.213 495.585 97.2272L491.162 93.1728C488.032 96.5873 485.629 100.205 484.011 104.031L489.536 106.369ZM495.585 97.2272C498.247 94.3226 501.544 91.869 505.515 89.8833L502.832 84.5167C498.27 86.7976 494.366 89.6774 491.162 93.1728L495.585 97.2272ZM505.482 89.8994C509.41 87.9952 514.016 87 519.373 87V81C513.265 81 507.737 82.1381 502.865 84.5006L505.482 89.8994ZM516.373 84V106H522.373V84H516.373ZM519.373 103C516.519 103 513.886 103.639 511.601 105.045L514.746 110.155C515.927 109.428 517.428 109 519.373 109V103ZM511.509 105.104C509.58 106.39 507.964 108.006 506.677 109.936L511.67 113.264C512.517 111.994 513.567 110.943 514.838 110.096L511.509 105.104ZM506.642 109.989C505.494 111.794 504.773 113.747 504.773 115.8H510.773C510.773 115.187 510.986 114.34 511.704 113.211L506.642 109.989ZM504.773 115.8V127.2H510.773V115.8H504.773ZM507.773 130.2H542.973V124.2H507.773V130.2ZM545.973 127.2V116H539.973V127.2H545.973ZM545.973 116C545.973 113.019 545.13 110.312 543.193 108.182L538.754 112.218C539.484 113.021 539.973 114.181 539.973 116H545.973ZM543.278 108.279C541.583 106.245 539.445 104.795 536.922 103.954L535.025 109.646C536.502 110.139 537.697 110.955 538.669 112.121L543.278 108.279ZM536.922 103.954C534.613 103.184 532.225 102.8 529.773 102.8V108.8C531.588 108.8 533.334 109.083 535.025 109.646L536.922 103.954ZM532.773 105.8V84H526.773V105.8H532.773ZM529.773 87C534.616 87 539.512 88.1469 544.486 90.5098L547.061 85.0902C541.369 82.3865 535.598 81 529.773 81V87ZM544.486 90.5098C549.414 92.8506 553.515 96.0985 556.824 100.266L561.523 96.5343C557.632 91.6349 552.799 87.816 547.061 85.0902L544.486 90.5098ZM556.852 100.3C559.988 104.133 561.573 108.651 561.573 114H567.573C567.573 107.349 565.559 101.467 561.495 96.5003L556.852 100.3ZM561.573 114V149.6H567.573V114H561.573ZM564.573 146.6H507.773V152.6H564.573V146.6ZM504.773 149.6V165.6H510.773V149.6H504.773ZM504.773 165.6C504.773 167.46 505.389 169.293 506.34 171.037L511.607 168.163C510.958 166.974 510.773 166.14 510.773 165.6H504.773ZM506.401 171.143C507.513 172.997 509.18 174.511 511.201 175.755L514.346 170.645C512.9 169.755 512.034 168.87 511.546 168.057L506.401 171.143ZM511.432 175.883C513.814 177.075 516.567 177.6 519.573 177.6V171.6C517.247 171.6 515.466 171.192 514.115 170.517L511.432 175.883ZM516.573 174.6V196H522.573V174.6H516.573ZM532.773 196V174.6H526.773V196H532.773ZM529.773 177.6C533.287 177.6 536.448 177.017 539.115 175.683L536.432 170.317C534.832 171.116 532.659 171.6 529.773 171.6V177.6ZM539.244 175.615C541.688 174.24 543.744 172.519 545.351 170.429L540.596 166.771C539.536 168.148 538.126 169.36 536.303 170.385L539.244 175.615ZM545.415 170.344C546.935 168.215 548.036 165.957 548.672 163.573L542.875 162.027C542.444 163.643 541.679 165.251 540.532 166.856L545.415 170.344ZM544.71 165.605L563.71 172.805L565.837 167.195L546.837 159.995L544.71 165.605ZM561.843 169.359C561.024 173.103 559.192 176.824 556.231 180.526L560.916 184.274C564.355 179.976 566.657 175.43 567.704 170.641L561.843 169.359ZM556.193 180.575C553.422 184.188 549.781 187.18 545.203 189.531L547.944 194.869C553.232 192.153 557.591 188.612 560.954 184.225L556.193 180.575ZM545.203 189.531C540.746 191.82 535.626 193 529.773 193V199C536.454 199 542.534 197.647 547.944 194.869L545.203 189.531Z" fill="#6EA8FE"/>
</svg>
